<?xml version="1.0" encoding="UTF-8" standalone="no"?>
<!DOCTYPE svg PUBLIC "-//W3C//DTD SVG 1.1//EN" "http://www.w3.org/Graphics/SVG/1.1/DTD/svg11.dtd">
<svg viewBox="0 0 628 724" version="1.1" xmlns="http://www.w3.org/2000/svg" xmlns:xlink="http://www.w3.org/1999/xlink" xml:space="preserve" xmlns:serif="http://www.serif.com/" style="fill-rule:evenodd;clip-rule:evenodd;stroke-linecap:round;stroke-linejoin:round;stroke-miterlimit:1.5;">
    <g id="Rocket_Trail" transform="matrix(1,0,0,1,-996.032,-351.53)">
        <path d="M1086.48,984.099C1194.23,919.579 1209.32,910.824 1235.47,894.137C1248.36,885.914 1262.54,876.675 1281.45,861.87C1305.63,842.947 1336.15,815.485 1343.58,784.652C1346.12,774.107 1343.86,752.726 1278.93,724.439C1261.57,716.877 1249.1,712.647 1246.46,711.752C1207.52,698.548 1153.84,685.35 1139.68,660.462C1134.64,651.595 1130.23,635.533 1159.92,599.404C1179.95,575.038 1212.72,545.546 1240.47,528.499C1282.43,502.722 1321.69,486.534 1337.85,480.373C1341.53,478.968 1343.8,478.169 1343.81,478.168C1344.98,477.995 1346.15,477.616 1347.33,477.683C1347.87,477.714 1350.99,477.891 1353.45,480.618C1353.82,481.033 1355.98,483.432 1355.76,487.212C1355.55,490.873 1353.23,492.963 1352.83,493.325C1351.02,494.952 1350.87,494.746 1348.59,495.575C1336.23,500.051 1294.23,516.505 1249.73,543.623C1211.65,566.827 1158.32,618.659 1153.39,643.987C1152.73,647.34 1152.16,651.816 1160.2,658.699C1180.69,676.258 1234.27,689.372 1263.45,700.998C1304.33,717.278 1362.03,744.403 1358.13,782.501C1357.48,788.925 1353.85,800.609 1346.03,813.361C1331.64,836.84 1306.79,859.059 1270.12,883.999C1247.38,899.462 1194.48,930.273 1118.16,968.397C1105.82,974.562 1103.08,975.904 1086.48,984.099Z"/>
    </g>
    <g id="Rocket" transform="matrix(0.86322,0.504828,-0.504828,0.86322,-637.166,-935.177)">
        <path d="M1536.37,244.679L1467.91,346.512L1466.05,369.968L1443.86,403.904L1427.65,407.29L1421.06,416.746L1414.65,418.432L1408.6,428.205L1401.5,429.485L1386.84,418.083L1385.56,414.01L1391.84,405.284L1390.89,398.955L1398.46,388.702L1394.87,373.288L1417.38,339.645L1439,328.168L1507.01,227.15L1561.35,170.83L1564.04,170L1564.55,172.571L1536.37,244.679ZM1513.53,237.737C1508.28,237.737 1504.02,241.999 1504.02,247.249C1504.02,252.499 1508.28,256.761 1513.53,256.761C1518.78,256.761 1523.04,252.499 1523.04,247.249C1523.04,241.999 1518.78,237.737 1513.53,237.737Z" style="fill:white;"/>
        <path d="M1536.37,244.679L1467.91,346.512L1466.05,369.968L1443.86,403.904L1427.65,407.29L1421.06,416.746L1414.65,418.432L1408.6,428.205L1401.5,429.485L1386.84,418.083L1385.56,414.01L1391.84,405.284L1390.89,398.955L1398.46,388.702L1394.87,373.288L1417.38,339.645L1439,328.168L1507.01,227.15L1561.35,170.83L1564.04,170L1564.55,172.571L1536.37,244.679Z" style="fill:none;stroke:black;stroke-width:1px;"/>
        <g transform="matrix(1,0,0,1,-0.38125,0.038125)">
            <circle cx="1513.91" cy="247.211" r="9.512" style="fill:rgb(235,235,235);"/>
        </g>
    </g>
</svg>
